/* XPM */
static char * file_empty_xpm[] = {
"16 16 3 1",
" 	c None",
".	c #000000",
"+	c #5D5D5D",
"                ",
"                ",
"                ",
"                ",
"                ",
"                ",
"                ",
"   ..........   ",
"   .++++++++.   ",
"   ..........   ",
"                ",
"                ",
"                ",
"                ",
"                ",
"                "};
