/* XPM */
static char * playing_xpm[] = {
"16 16 3 1",
" 	c None",
".	c #000000",
"+	c #3C3C3C",
"                ",
"                ",
"                ",
"   .            ",
"   ...          ",
"   .+..         ",
"   .+++..       ",
"   .+++++..     ",
"   .++++++..    ",
"   .+++++..     ",
"   .+++..       ",
"   .+...        ",
"   ...          ",
"   .            ",
"                ",
"                "};
